<svg xmlns="http://www.w3.org/2000/svg" width="183.876" height="27.188" viewBox="0 0 183.876 27.188">
  <g id="Logo" transform="translate(-105.728 -17.5)">
    <g id="_2966933140496" transform="translate(105.728 17.5)">
      <path id="Path_1" data-name="Path 1" d="M534.994,6488.439h7.1c-.028-2.348-.335-4.5.95-5.842,3.3-3.354,8.19,1.621,4.948,4.919-1.342,1.37-3.578.951-5.87.979v7.1c6.6.112,9.839-.838,12.439-4.92,5.87-9.224-4.612-20.405-14.368-14.815C534.882,6478.908,534.994,6483.828,534.994,6488.439Zm2.32-2.32h2.46c-.028-7.6,6.765-8.246,9.867-5.311a5.828,5.828,0,0,1,1.09,6.932c-1.258,2.376-2.879,2.907-6.206,3.1l-.084,2.4c8.414.727,12.411-8.973,7.044-14.061C546.594,6474.519,537.23,6476.364,537.314,6486.12Z" transform="translate(-534.993 -6474.362)" fill-rule="evenodd"/>
      <path id="Path_2" data-name="Path 2" d="M535,7241.9l7.072-.028V7236h-7.044Z" transform="translate(-535 -7214.71)" fill-rule="evenodd"/>
    </g>
    <path id="Path_3" data-name="Path 3" d="M1579.078,6785.036a7.793,7.793,0,0,0,8.106-8.162v-10.539h-3.326v10.426c0,3.047-1.957,5.228-4.78,5.228-2.767,0-4.752-2.181-4.752-5.228v-10.426H1571v10.539A7.8,7.8,0,0,0,1579.078,6785.036Zm31.2-.335-4.612-6.513a5.966,5.966,0,0,0,4.444-5.758c0-3.578-2.935-6.094-6.876-6.094h-7.967V6784.7h3.326v-6.178h3.55l4.333,6.178Zm-11.684-15.291h4.277c2.264,0,3.858,1.146,3.858,3.02s-1.593,3.019-3.858,3.019h-4.277Zm25.549,15.6c4.389,0,6.9-2.348,6.9-5.618,0-3.354-2.572-4.584-6.4-5.423-2.907-.67-4.277-1.2-4.277-2.711,0-1.286,1.258-2.4,3.1-2.4a8.082,8.082,0,0,1,5.255,2.18l1.817-2.459a10.109,10.109,0,0,0-6.932-2.572c-3.885,0-6.6,2.348-6.6,5.563,0,3.438,2.628,4.528,6.429,5.423,2.935.7,4.249,1.2,4.249,2.711,0,1.314-1.174,2.432-3.438,2.432a8.688,8.688,0,0,1-6.038-2.488l-1.929,2.375A11.225,11.225,0,0,0,1624.139,6785.008Zm22.307.028a7.809,7.809,0,0,0,8.106-8.162v-10.539h-3.326v10.426c0,3.047-1.985,5.228-4.78,5.228-2.767,0-4.752-2.181-4.752-5.228v-10.426h-3.354v10.539A7.824,7.824,0,0,0,1646.445,6785.036Zm30.134-.335h3.69l-7.659-18.365h-3.718l-7.659,18.365h3.718l1.37-3.327h8.889Zm-9.057-6.206,3.243-7.715,3.243,7.715Zm19.651,6.206h3.327v-12.914l9.7,12.914h3.326v-18.365H1700.2v12.915l-9.7-12.915h-3.327Zm29.547,0h3.327v-15.318h5.87v-3.047H1710.85v3.047h5.87Z" transform="translate(-1436.313 -6740.348)"/>
  </g>
</svg>
