<svg xmlns="http://www.w3.org/2000/svg" width="114.852" height="16.982" viewBox="0 0 114.852 16.982">
  <g id="Group_20" data-name="Group 20" transform="translate(-28.728 -23.5)">
    <g id="_2966933140496" transform="translate(28.728 23.5)">
      <path id="Path_1" data-name="Path 1" d="M534.994,6483.155h4.435c-.017-1.466-.21-2.811.594-3.649a2.179,2.179,0,1,1,3.09,3.073c-.838.855-2.235.594-3.667.611v4.435c4.12.069,6.146-.524,7.77-3.073,3.667-5.762-2.881-12.746-8.974-9.254C534.924,6477.2,534.994,6480.274,534.994,6483.155Zm1.449-1.449h1.536c-.017-4.749,4.225-5.151,6.163-3.317a3.64,3.64,0,0,1,.681,4.33c-.786,1.484-1.8,1.816-3.876,1.938l-.052,1.5c5.255.454,7.752-5.6,4.4-8.783C542.24,6474.46,536.39,6475.612,536.443,6481.706Z" transform="translate(-534.993 -6474.361)" fill-rule="evenodd"/>
      <path id="Path_2" data-name="Path 2" d="M535,7239.684l4.417-.018V7236h-4.4Z" transform="translate(-535 -7222.702)" fill-rule="evenodd"/>
    </g>
    <path id="Path_3" data-name="Path 3" d="M1576.046,6777.89a4.868,4.868,0,0,0,5.063-5.1v-6.583h-2.078v6.512a2.99,2.99,0,1,1-5.954,0v-6.512H1571v6.583A4.873,4.873,0,0,0,1576.046,6777.89Zm19.485-.209-2.881-4.068a3.727,3.727,0,0,0,2.776-3.6c0-2.235-1.833-3.806-4.3-3.806h-4.976v11.471h2.078v-3.859h2.217l2.706,3.859Zm-7.3-9.551h2.671c1.414,0,2.41.716,2.41,1.886s-1,1.885-2.41,1.885h-2.671Zm15.958,9.743c2.741,0,4.313-1.467,4.313-3.509,0-2.1-1.606-2.864-4-3.388-1.816-.418-2.671-.751-2.671-1.693,0-.8.786-1.5,1.938-1.5a5.048,5.048,0,0,1,3.282,1.362l1.135-1.537a6.316,6.316,0,0,0-4.33-1.606c-2.427,0-4.12,1.466-4.12,3.474,0,2.148,1.641,2.829,4.016,3.387,1.833.437,2.654.751,2.654,1.694,0,.821-.733,1.519-2.148,1.519a5.427,5.427,0,0,1-3.771-1.554l-1.2,1.483A7.01,7.01,0,0,0,1604.192,6777.873Zm13.933.018a4.877,4.877,0,0,0,5.063-5.1v-6.583h-2.078v6.512a2.99,2.99,0,1,1-5.954,0v-6.512h-2.1v6.583A4.887,4.887,0,0,0,1618.125,6777.89Zm18.822-.209h2.3l-4.784-11.471h-2.322l-4.784,11.471h2.322l.856-2.078h5.552Zm-5.657-3.876,2.025-4.819,2.025,4.819Zm12.274,3.876h2.078v-8.066l6.059,8.066h2.078v-11.471H1651.7v8.066l-6.059-8.066h-2.078Zm18.455,0h2.078v-9.568h3.667v-1.9h-9.411v1.9h3.667Z" transform="translate(-1524.184 -6737.408)"/>
  </g>
</svg>
