<svg xmlns="http://www.w3.org/2000/svg" width="29.532" height="24" viewBox="0 0 29.532 24">
  <path id="iconmonstr-twitter-1" d="M29.532,5.089a12.1,12.1,0,0,1-3.48.954,6.069,6.069,0,0,0,2.664-3.352,12.137,12.137,0,0,1-3.848,1.47A6.063,6.063,0,0,0,14.543,9.686,17.2,17.2,0,0,1,2.056,3.357,6.067,6.067,0,0,0,3.93,11.446a6.033,6.033,0,0,1-2.743-.758,6.063,6.063,0,0,0,4.859,6.017,6.073,6.073,0,0,1-2.737.1,6.063,6.063,0,0,0,5.66,4.207A12.182,12.182,0,0,1,0,23.526a17.152,17.152,0,0,0,9.288,2.722c11.249,0,17.605-9.5,17.221-18.022a12.336,12.336,0,0,0,3.023-3.137Z" transform="translate(0 -2.248)"/>
</svg>
